<svg width="717" height="674" viewBox="0 0 717 674" fill="none" xmlns="http://www.w3.org/2000/svg">
<path d="M691.667 495.252V92.9197C691.667 52.9197 659 23.253 619.333 26.5864H617.333C547.333 32.5864 441 68.253 381.667 105.586L376 109.253C366.333 115.253 350.333 115.253 340.667 109.253L332.333 104.253C273 67.253 167 31.9197 97 26.253C57.3333 22.9197 25 52.9197 25 92.5864V495.252C25 527.252 51 557.252 83 561.252L92.6667 562.585C165 572.252 276.667 608.918 340.667 643.918L342 644.585C351 649.585 365.333 649.585 374 644.585C438 609.252 550 572.252 622.667 562.585L633.667 561.252C665.667 557.252 691.667 527.252 691.667 495.252Z" stroke="#FD5F00" stroke-width="50" stroke-linecap="round" stroke-linejoin="round"/>
<path d="M358.333 120.255V620.255" stroke="#FD5F00" stroke-width="50" stroke-linecap="round" stroke-linejoin="round"/>
<path d="M216.667 220.255H141.667" stroke="#FD5F00" stroke-width="50" stroke-linecap="round" stroke-linejoin="round"/>
<path d="M241.667 320.255H141.667" stroke="#FD5F00" stroke-width="50" stroke-linecap="round" stroke-linejoin="round"/>
</svg>
