<svg width="15" height="12" viewBox="0 0 15 12" fill="none" xmlns="http://www.w3.org/2000/svg">
<path d="M13.2837 1.75372C13.2812 1.7317 13.2776 1.70844 13.2776 1.68397C13.2776 1.66072 13.2788 1.63747 13.2837 1.61422V0.0857859C12.2144 -0.0157833 11.1121 0.101694 10.1489 0.467588C9.24927 0.810231 8.4729 1.37192 7.96875 2.17836V10.8852C8.75366 10.3602 9.55566 9.9282 10.3796 9.63451C11.3184 9.29921 12.2839 9.14013 13.2837 9.21967V1.75372ZM7.04468 10.7946V2.16367C6.56006 1.30706 5.77637 0.73436 4.89258 0.394165C3.89038 0.00991495 2.76367 -0.0769695 1.78223 0.0625351L1.72974 9.24659C2.80029 9.20743 3.84888 9.34449 4.83398 9.66755C5.6189 9.92331 6.3623 10.299 7.04468 10.7946Z" fill="#F6F6E9"/>
<path d="M0.808105 9.69814L0.85083 2.14899H0V11.7552C1.16821 11.453 2.34009 11.2608 3.52173 11.2523C4.61182 11.2462 5.7019 11.3979 6.79443 11.7687C6.11572 11.218 5.35889 10.8117 4.55078 10.5486C3.53394 10.2158 2.43408 10.1056 1.30615 10.2023C1.05103 10.2231 0.828857 10.0334 0.806885 9.77891C0.804443 9.75076 0.804443 9.72384 0.808105 9.69814ZM8.41675 11.6977C9.43848 11.3759 10.4578 11.2437 11.4783 11.2498C12.6587 11.2559 13.8318 11.4505 15 11.7528V2.14899H14.209V9.73975C14.209 9.99551 14.0015 10.2035 13.7463 10.2035C13.7097 10.2035 13.6743 10.1999 13.6401 10.1913C12.6282 10.0322 11.6479 10.1644 10.6909 10.5058C9.91943 10.7811 9.1626 11.1935 8.41675 11.6977Z" fill="#F6F6E9"/>
</svg>
