<svg width="50" height="50" viewBox="0 0 50 50" fill="none" xmlns="http://www.w3.org/2000/svg">
<g clip-path="url(#clip0_45_20)">
<path d="M11.632 9H14.368C14.4543 9 14.5371 9.0343 14.5982 9.09534C14.6592 9.15639 14.6935 9.23919 14.6935 9.32552V12.3016H17.6753C17.7616 12.3016 17.8444 12.3359 17.9055 12.3969C17.9665 12.458 18.0008 12.5408 18.0008 12.6271V15.3623C18.0008 15.4486 17.9665 15.5314 17.9055 15.5925C17.8444 15.6535 17.7616 15.6878 17.6753 15.6878H14.6927V18.6647C14.6927 18.751 14.6584 18.8338 14.5974 18.8949C14.5363 18.9559 14.4535 18.9902 14.3672 18.9902H11.632C11.5457 18.9902 11.4629 18.9559 11.4018 18.8949C11.3408 18.8338 11.3065 18.751 11.3065 18.6647V15.6878H8.32552C8.23919 15.6878 8.15639 15.6535 8.09534 15.5925C8.0343 15.5314 8 15.4486 8 15.3623V12.6263C8 12.54 8.0343 12.4572 8.09534 12.3961C8.15639 12.3351 8.23919 12.3008 8.32552 12.3008H11.3065V9.32552C11.3065 9.23919 11.3408 9.15639 11.4018 9.09534C11.4629 9.0343 11.5457 9 11.632 9Z" fill="#F6F6E9"/>
</g>
<g clip-path="url(#clip1_45_20)">
<path fill-rule="evenodd" clip-rule="evenodd" d="M20.1953 32H29.8047C29.8564 32.0002 29.906 32.0209 29.9426 32.0574C29.9791 32.094 29.9998 32.1436 30 32.1953V34.8906C29.9998 34.9424 29.9791 34.9919 29.9426 35.0285C29.906 35.0651 29.8564 35.0857 29.8047 35.0859H20.1953C20.1436 35.0857 20.094 35.0651 20.0574 35.0285C20.0209 34.9919 20.0002 34.9424 20 34.8906V32.1953C20.0002 32.1436 20.0209 32.094 20.0574 32.0574C20.094 32.0209 20.1436 32.0002 20.1953 32ZM20.1953 37.6055H29.8047C29.8564 37.6057 29.906 37.6263 29.9426 37.6629C29.9791 37.6995 29.9998 37.749 30 37.8008V40.4961C29.9998 40.5478 29.9791 40.5974 29.9426 40.634C29.906 40.6705 29.8564 40.6912 29.8047 40.6914H20.1953C20.1436 40.6912 20.094 40.6705 20.0574 40.634C20.0209 40.5974 20.0002 40.5478 20 40.4961V37.8008C20.0002 37.749 20.0209 37.6995 20.0574 37.6629C20.094 37.6263 20.1436 37.6057 20.1953 37.6055Z" fill="#F6F6E9"/>
</g>
<g clip-path="url(#clip2_45_20)">
<path d="M40.6745 12C40.7608 12 40.8436 12.0338 40.9047 12.0939C40.9657 12.1539 41 12.2355 41 12.3204V15.0137C41 15.0987 40.9657 15.1802 40.9047 15.2403C40.8436 15.3004 40.7608 15.3341 40.6745 15.3341H31.3255C31.2392 15.3341 31.1564 15.3004 31.0953 15.2403C31.0343 15.1802 31 15.0987 31 15.0137V12.3204C31 12.2355 31.0343 12.1539 31.0953 12.0939C31.1564 12.0338 31.2392 12 31.3255 12H40.6745Z" fill="#F6F6E9"/>
</g>
<rect x="1.5" y="1.5" width="47" height="47" stroke="#F6F6E9" stroke-width="3"/>
<rect y="23" width="50" height="3" fill="#F6F6E9"/>
<rect x="23" y="1" width="3" height="25" fill="#F6F6E9"/>
<defs>
<clipPath id="clip0_45_20">
<rect width="10" height="9.98942" fill="white" transform="translate(8 9)"/>
</clipPath>
<clipPath id="clip1_45_20">
<rect width="10" height="8.69141" fill="white" transform="translate(20 32)"/>
</clipPath>
<clipPath id="clip2_45_20">
<rect width="10" height="3.33333" fill="white" transform="translate(31 12)"/>
</clipPath>
</defs>
</svg>
