<svg width="25" height="25" viewBox="0 0 25 25" fill="none" xmlns="http://www.w3.org/2000/svg">
<path d="M21.4498 18.8029C21.6227 18.8029 21.7773 18.8721 21.8913 18.986L21.8994 18.9962C22.0072 19.1081 22.0723 19.2607 22.0723 19.4275C22.0723 19.6004 22.0032 19.755 21.8892 19.869C21.7773 19.9809 21.6207 20.0521 21.4478 20.0521H15.7227C15.5497 20.0521 15.3951 19.9829 15.2812 19.869C15.1693 19.7571 15.0981 19.6004 15.0981 19.4275C15.0981 19.2566 15.1672 19.0999 15.2812 18.988C15.3931 18.8741 15.5497 18.8049 15.7206 18.8049H21.4498V18.8029ZM4.22567 16.4266L4.21753 16.4164C4.10156 16.2964 4.0446 16.1418 4.0446 15.9851C4.0446 15.8264 4.10563 15.6677 4.2277 15.5457C4.34977 15.4236 4.50846 15.3625 4.66919 15.3625C4.82992 15.3625 4.98861 15.4236 5.11068 15.5457L6.69556 17.1305L8.28044 15.5457C8.40251 15.4236 8.5612 15.3625 8.72192 15.3625C8.88062 15.3625 9.04134 15.4236 9.16341 15.5457C9.28548 15.6677 9.34652 15.8264 9.34652 15.9871C9.34652 16.1458 9.28548 16.3066 9.16341 16.4286L7.57853 18.0135L9.15527 19.5943C9.27734 19.7164 9.33838 19.8751 9.33838 20.0358C9.33838 20.1965 9.27734 20.3552 9.15527 20.4773C9.0332 20.5994 8.87451 20.6604 8.71379 20.6604C8.5551 20.6604 8.39437 20.5994 8.2723 20.4773L6.68742 18.8924L5.10254 20.4773C4.98047 20.5994 4.82178 20.6604 4.66105 20.6604C4.50033 20.6604 4.34163 20.5994 4.21956 20.4773L4.21143 20.4671C4.09546 20.3471 4.03849 20.1925 4.03849 20.0358C4.03849 19.8771 4.09953 19.7184 4.2216 19.5964L5.80648 18.0115L4.22567 16.4266ZM25 12.3149V22.345C25 22.6522 24.939 22.9472 24.8271 23.2178C24.7111 23.4985 24.5402 23.7488 24.3306 23.9604L24.3225 23.9685C24.113 24.176 23.8647 24.3429 23.5901 24.4568C23.3215 24.5687 23.0265 24.6297 22.7173 24.6297H2.28475C1.97754 24.6297 1.68254 24.5687 1.41195 24.4568C1.13322 24.3408 0.880941 24.1699 0.669352 23.9604C0.457764 23.7508 0.2889 23.4985 0.172933 23.2178C0.0610352 22.9452 0 22.6501 0 22.3429V2.28475C0 1.97754 0.0610352 1.68254 0.172933 1.41195C0.290934 1.13322 0.459798 0.880941 0.671387 0.671387L0.679525 0.663249C0.889079 0.455729 1.13729 0.2889 1.41195 0.174967C1.68254 0.0610352 1.97754 0 2.28475 0H22.7153C23.0225 0 23.3175 0.0610352 23.5881 0.172933C23.8668 0.2889 24.1191 0.459798 24.3306 0.669352C24.5422 0.878906 24.7111 1.13118 24.8271 1.41195C24.939 1.6805 25 1.9755 25 2.28475V12.3149ZM23.7528 22.3429V12.9374H13.1226V23.3826H22.7153C22.8556 23.3826 22.9899 23.3541 23.1099 23.3032C23.2361 23.2503 23.3521 23.173 23.4477 23.0754C23.6369 22.8882 23.7528 22.6278 23.7528 22.3429ZM23.7528 11.6903V2.28475C23.7528 2.14437 23.7244 2.01009 23.6735 1.89006C23.6206 1.76392 23.5433 1.64795 23.4456 1.55233C23.35 1.45671 23.2341 1.37736 23.1079 1.32446C22.9858 1.2736 22.8536 1.24512 22.7132 1.24512H13.1226V11.6903H23.7528ZM1.24715 2.28475V11.6903H11.8774V1.24715H2.28475C2.14437 1.24715 2.01009 1.27563 1.89006 1.3265C1.76392 1.37736 1.64795 1.45467 1.55233 1.55233C1.36312 1.7395 1.24715 1.99992 1.24715 2.28475ZM1.24715 12.9374V22.3429C1.24715 22.4833 1.27563 22.6176 1.3265 22.7376C1.37939 22.8638 1.45671 22.9797 1.55436 23.0754C1.64998 23.171 1.76595 23.2503 1.89209 23.3032C2.01416 23.3541 2.1464 23.3826 2.28678 23.3826H11.8795V12.9374H1.24715ZM6.06689 3.44238C6.06689 3.26945 6.13607 3.11483 6.25 3.0009C6.3619 2.889 6.51855 2.81779 6.69149 2.81779C6.86442 2.81779 7.01904 2.88696 7.13298 3.0009C7.24487 3.11279 7.31608 3.26945 7.31608 3.44238V5.68237H9.55607C9.729 5.68237 9.88363 5.75155 9.99756 5.86548C10.1095 5.97738 10.1807 6.13403 10.1807 6.30697C10.1807 6.4799 10.1115 6.63452 9.99756 6.74845C9.88566 6.86035 9.729 6.93156 9.55607 6.93156H7.31405V9.17155C7.31405 9.34448 7.24487 9.49911 7.13094 9.61304C7.01904 9.72494 6.86239 9.79614 6.68945 9.79614C6.51652 9.79614 6.3619 9.72697 6.24797 9.61304C6.13607 9.50114 6.06486 9.34448 6.06486 9.17155V6.92953H3.8269C3.65397 6.92953 3.49935 6.86035 3.38542 6.74642C3.27352 6.63452 3.20231 6.47786 3.20231 6.30493C3.20231 6.132 3.27148 5.97738 3.38542 5.86344C3.49935 5.74951 3.65397 5.68034 3.8269 5.68034H6.06689V3.44238ZM21.4498 5.68237C21.6227 5.68237 21.7773 5.75155 21.8913 5.86548C22.0032 5.97738 22.0744 6.13403 22.0744 6.30697C22.0744 6.4799 22.0052 6.63452 21.8913 6.74845C21.7794 6.86035 21.6227 6.93156 21.4498 6.93156H15.7227C15.5497 6.93156 15.3951 6.86239 15.2812 6.74845C15.1693 6.63656 15.0981 6.4799 15.0981 6.30697C15.0981 6.13403 15.1672 5.97941 15.2812 5.86548C15.3931 5.75358 15.5497 5.68237 15.7227 5.68237H21.4498ZM21.4498 16.0767C21.6227 16.0767 21.7773 16.1458 21.8913 16.2598L21.8994 16.2699C22.0072 16.3818 22.0723 16.5344 22.0723 16.7013C22.0723 16.8742 22.0032 17.0288 21.8892 17.1427C21.7773 17.2546 21.6207 17.3258 21.4478 17.3258H15.7227C15.5497 17.3258 15.3951 17.2567 15.2812 17.1427C15.1693 17.0308 15.0981 16.8742 15.0981 16.7013C15.0981 16.5304 15.1672 16.3737 15.2812 16.2618C15.3931 16.1479 15.5497 16.0787 15.7206 16.0787H21.4498V16.0767Z" fill="#F6F6E9"/>
</svg>
