<svg width="21" height="32" viewBox="0 0 21 32" fill="none" xmlns="http://www.w3.org/2000/svg">
<path fill-rule="evenodd" clip-rule="evenodd" d="M20.2786 14C20.468 14 20.6497 14.0752 20.7837 14.2092C20.9176 14.3431 20.9929 14.5248 20.9929 14.7142V21.5709C20.9929 22.0399 20.9005 22.5043 20.721 22.9376C20.5415 23.3708 20.2785 23.7645 19.9469 24.0961C19.6153 24.4278 19.2216 24.6908 18.7883 24.8703C18.355 25.0497 17.8906 25.1421 17.4217 25.1421H3.43255L8.21367 29.9218C8.34779 30.0559 8.42314 30.2378 8.42314 30.4275C8.42314 30.6172 8.34779 30.7991 8.21367 30.9332C8.07956 31.0673 7.89766 31.1426 7.70799 31.1426C7.51832 31.1426 7.33643 31.0673 7.20231 30.9332L1.20269 24.9336C1.13618 24.8672 1.08341 24.7884 1.0474 24.7016C1.01139 24.6148 0.992859 24.5218 0.992859 24.4279C0.992859 24.3339 1.01139 24.2409 1.0474 24.1541C1.08341 24.0674 1.13618 23.9885 1.20269 23.9222L6.91661 18.2083C7.05073 18.0742 7.23263 17.9988 7.4223 17.9988C7.61196 17.9988 7.79386 18.0742 7.92798 18.2083C8.06209 18.3424 8.13744 18.5243 8.13744 18.714C8.13744 18.9036 8.06209 19.0855 7.92798 19.2196L3.43255 23.7136H17.4217C17.9899 23.7136 18.535 23.4879 18.9368 23.086C19.3386 22.6842 19.5644 22.1392 19.5644 21.5709V14.7142C19.5644 14.5248 19.6396 14.3431 19.7736 14.2092C19.9075 14.0752 20.0892 14 20.2786 14Z" fill="#F6F6E9"/>
<path fill-rule="evenodd" clip-rule="evenodd" d="M1.71424 17.1427C1.52481 17.1427 1.34314 17.0674 1.2092 16.9335C1.07525 16.7995 1 16.6179 1 16.4284V9.57172C1 9.10275 1.09237 8.63836 1.27184 8.20509C1.45131 7.77181 1.71436 7.37812 2.04598 7.0465C2.3776 6.71489 2.77128 6.45183 3.20456 6.27237C3.63784 6.0929 4.10222 6.00052 4.5712 6.00052L18.5603 6.00052L13.7792 1.22083C13.6451 1.08671 13.5697 0.904816 13.5697 0.715148C13.5697 0.52548 13.6451 0.343581 13.7792 0.209466C13.9133 0.0753507 14.0952 6.05589e-06 14.2849 6.05215e-06C14.4745 6.04841e-06 14.6564 0.0753507 14.7905 0.209466L20.7902 6.20908C20.8567 6.27543 20.9095 6.35425 20.9455 6.44102C20.9815 6.52779 21 6.62082 21 6.71476C21 6.80871 20.9815 6.90174 20.9455 6.98851C20.9095 7.07528 20.8567 7.1541 20.7902 7.22045L15.0762 12.9344C14.9421 13.0685 14.7602 13.1438 14.5706 13.1438C14.3809 13.1438 14.199 13.0685 14.0649 12.9344C13.9308 12.8003 13.8554 12.6184 13.8554 12.4287C13.8554 12.239 13.9308 12.0571 14.0649 11.923L18.5603 7.429L4.5712 7.429C4.00292 7.429 3.45791 7.65476 3.05607 8.05659C2.65423 8.45843 2.42848 9.00344 2.42848 9.57172V16.4284C2.42848 16.6179 2.35323 16.7995 2.21928 16.9335C2.08534 17.0674 1.90367 17.1427 1.71424 17.1427Z" fill="#F6F6E9"/>
</svg>
