<svg width="15" height="15" viewBox="0 0 15 15" fill="none" xmlns="http://www.w3.org/2000/svg">
<g clip-path="url(#clip0_34_1758)">
<path d="M0.399172 1.88283e-06H14.6008C14.6533 -0.0001597 14.7053 0.0100804 14.7538 0.030133C14.8023 0.0501856 14.8463 0.0796548 14.8834 0.116845C14.9205 0.154035 14.9499 0.198213 14.9699 0.246835C14.9899 0.295457 15.0002 0.347565 15 0.40016V14.1573C15.0002 14.2099 14.9899 14.262 14.9699 14.3106C14.9499 14.3592 14.9205 14.4034 14.8834 14.4406C14.8463 14.4778 14.8023 14.5072 14.7538 14.5273C14.7053 14.5474 14.6533 14.5576 14.6008 14.5574H0.399172C0.346707 14.5576 0.294728 14.5474 0.246226 14.5273C0.197723 14.5072 0.153655 14.4778 0.116557 14.4406C0.0794581 14.4034 0.0500617 14.3592 0.0300586 14.3106C0.0100555 14.262 -0.000159306 14.2099 1.87818e-06 14.1573V0.40016C-0.000159306 0.347565 0.0100555 0.295457 0.0300586 0.246835C0.0500617 0.198213 0.0794581 0.154035 0.116557 0.116845C0.153655 0.0796548 0.197723 0.0501856 0.246226 0.030133C0.294728 0.0100804 0.346707 -0.0001597 0.399172 1.88283e-06ZM14.2017 9.97213H10.2661V13.7571H14.2017V9.97213ZM14.2017 5.38561H10.2661V9.17794H14.2017V5.38439V5.38561ZM10.2661 0.800318V4.5853H14.2017V0.800318H10.2661ZM9.46778 9.97213H5.53223V13.7571H9.46778V9.97213ZM9.46778 5.38561H5.53223V9.17794H9.46778V5.38439V5.38561ZM5.53223 0.800318V4.5853H9.46778V0.800318H5.53223ZM4.73389 9.97213H0.798342V13.7571H4.73389V9.97213ZM4.73389 5.38561H0.798342V9.17794H4.73389V5.38439V5.38561ZM4.73389 0.800318H0.798342V4.5853H4.73389V0.800318Z" fill="#F6F6E9"/>
</g>
<defs>
<clipPath id="clip0_34_1758">
<rect width="15" height="14.5574" fill="white"/>
</clipPath>
</defs>
</svg>
