<svg width="20" height="20" viewBox="0 0 20 20" fill="none" xmlns="http://www.w3.org/2000/svg">
<g clip-path="url(#clip0_34_1752)">
<path d="M19.2415 6.17676C19.7298 7.35514 20 8.64746 20 10C20 12.7604 18.8802 15.262 17.0703 17.0703C16.1491 17.9915 15.0472 18.7337 13.8232 19.2415C12.6449 19.7298 11.3525 20 10 20C7.23958 20 4.73796 18.8802 2.92969 17.0703C2.00846 16.1491 1.26628 15.0472 0.758463 13.8232C0.270182 12.6449 0 11.3525 0 10C0 8.64746 0.270182 7.35514 0.758463 6.17676C1.26628 4.95117 2.00846 3.85091 2.92969 2.92969C3.85091 2.00846 4.95117 1.26465 6.17676 0.758464C7.35514 0.270182 8.64746 0 10 0C11.3525 0 12.6449 0.270182 13.8232 0.758464C15.0488 1.26465 16.1491 2.00846 17.0703 2.92969C17.9915 3.84928 18.7354 4.95117 19.2415 6.17676ZM8.97135 7.0166C8.97624 6.44043 9.44661 5.97819 10.0228 5.98307C10.599 5.98796 11.0612 6.45833 11.0563 7.03451L11.0352 10.555L12.3291 9.28223C12.7393 8.87858 13.4001 8.88346 13.8021 9.29362C14.2057 9.70378 14.2008 10.363 13.7891 10.7666L10.7015 13.8053C10.2946 14.2041 9.64518 14.2041 9.23991 13.8053L6.21094 10.8268C5.80078 10.4232 5.7959 9.764 6.19792 9.35384C6.60156 8.94369 7.26074 8.9388 7.6709 9.34082L8.94857 10.599L8.97135 7.0166ZM17.3063 6.97591C16.9059 6.01074 16.3184 5.13997 15.5892 4.41081C14.86 3.68164 13.9893 3.09408 13.0241 2.69368C12.0947 2.30794 11.0726 2.09635 10 2.09635C8.92741 2.09635 7.9069 2.30957 6.97591 2.69368C6.01074 3.09408 5.13997 3.68164 4.41081 4.41081C3.68164 5.13997 3.09407 6.01074 2.69368 6.97591C2.30794 7.9069 2.09635 8.92741 2.09635 10C2.09635 11.0726 2.30957 12.0931 2.69368 13.0241C3.09407 13.9893 3.68164 14.86 4.41081 15.5892C5.13997 16.3184 6.00911 16.9059 6.97591 17.3063C7.90527 17.6921 8.92741 17.9036 10 17.9036C11.0726 17.9036 12.0931 17.6904 13.0241 17.3063C13.9893 16.9059 14.86 16.3184 15.5892 15.5892C16.3184 14.86 16.9059 13.9893 17.3063 13.0241C17.6921 12.0947 17.9036 11.0726 17.9036 10C17.9036 8.92741 17.6904 7.9069 17.3063 6.97591Z" fill="#13334C"/>
</g>
<defs>
<clipPath id="clip0_34_1752">
<rect width="20" height="20" fill="white" transform="translate(20) rotate(90)"/>
</clipPath>
</defs>
</svg>
